<?xml version="1.0" standalone="no"?>
<!DOCTYPE svg PUBLIC "-//W3C//DTD SVG 20010904//EN"
 "http://www.w3.org/TR/2001/REC-SVG-20010904/DTD/svg10.dtd">
<svg version="1.0" xmlns="http://www.w3.org/2000/svg"
 width="744.000000pt" height="689.000000pt" viewBox="0 0 744.000000 689.000000"
 preserveAspectRatio="xMidYMid meet">

<g transform="translate(0.000000,689.000000) scale(0.100000,-0.100000)"
fill="#000000" stroke="none">
<path fill="#33c5f4" d="M187 6699 c-51 -27 -82 -93 -73 -153 4 -25 58 -136 142 -291 75 -137
156 -288 181 -335 26 -47 147 -272 271 -500 124 -228 283 -523 355 -655 71
-132 168 -310 215 -395 46 -85 92 -168 100 -185 79 -153 526 -971 533 -973 5
-2 9 -10 9 -17 0 -7 52 -109 116 -227 65 -117 140 -257 168 -310 28 -54 56
-98 63 -98 6 0 19 24 28 53 35 106 109 276 188 432 89 175 86 170 243 432 60
101 114 191 119 200 61 108 516 767 631 914 34 43 44 64 44 92 0 34 -34 112
-84 197 -9 14 -61 111 -117 215 -56 105 -105 192 -110 193 -5 2 -9 9 -9 16 0
7 -64 134 -141 282 -153 290 -170 338 -133 380 13 15 67 33 179 63 88 23 201
55 250 70 50 16 124 38 165 50 69 21 156 49 320 106 236 82 458 191 558 275
76 64 97 96 83 132 -21 55 88 52 -2171 55 -2080 2 -2085 2 -2123 -18z"/>
<path d="M7070 6661 c-1941 -537 -3402 -1760 -4286 -3586 -390 -806 -672
-1770 -768 -2630 -27 -241 -25 -294 11 -335 l28 -31 1263 1 c1331 0 1304 -1
1341 44 12 14 12 64 1 329 -56 1371 213 2648 792 3757 431 824 1035 1580 1773
2215 103 89 135 133 135 188 0 49 -44 97 -87 96 -15 0 -107 -22 -203 -48z"/>
</g>
</svg>
